<svg xmlns="http://www.w3.org/2000/svg" width="42.76" height="42.76" viewBox="0 0 42.76 42.76"><defs><style>.cls-1{fill:#32aabb;}</style></defs><title>Knot_1</title><g id="Layer_2" data-name="Layer 2"><g id="Layer_1-2" data-name="Layer 1"><path class="cls-1" d="M3.63,17.54l3.84,3.84,8.05,8.06,3.3-3.31-8-8-4-4a7,7,0,0,1-2.19-3.94q-.3-2,1.85-4.14a5.11,5.11,0,0,1,3.64-1.75c1.24,0,2.55.66,3.94,2.05L15.69,8l3.06-3.06L16.39,2.55A8.9,8.9,0,0,0,13,.46,7.33,7.33,0,0,0,8.51.26,10.92,10.92,0,0,0,3.43,3.39,12.29,12.29,0,0,0,.73,7.44a7.76,7.76,0,0,0-.34,4.85A11.26,11.26,0,0,0,3.63,17.54Z"/><path class="cls-1" d="M26.13,23.94l-8,8.06-4,4a7,7,0,0,1-3.94,2.19q-2,.31-4.14-1.85A5.11,5.11,0,0,1,4.24,32.7c0-1.23.66-2.55,2.05-3.94L8,27.08,4.91,24,2.55,26.37A8.87,8.87,0,0,0,.46,29.74a7.29,7.29,0,0,0-.2,4.51,11,11,0,0,0,3.13,5.09A12.26,12.26,0,0,0,7.44,42a7.76,7.76,0,0,0,4.85.34,11.15,11.15,0,0,0,5.25-3.23l3.84-3.84,8.06-8.06Z"/><path class="cls-1" d="M39.14,25.22,35.3,21.38l-8.06-8-3.3,3.3,8,8.05,4,4a7,7,0,0,1,2.19,3.94c.2,1.33-.41,2.71-1.85,4.15a5.19,5.19,0,0,1-3.64,1.75,5.69,5.69,0,0,1-3.94-2.06l-1.68-1.68L24,37.86l2.36,2.35a8.87,8.87,0,0,0,3.37,2.09,7.22,7.22,0,0,0,4.51.2,11,11,0,0,0,5.09-3.13,12.32,12.32,0,0,0,2.69-4,7.77,7.77,0,0,0,.34-4.85A11.18,11.18,0,0,0,39.14,25.22Z"/><path class="cls-1" d="M16.63,18.82l8.05-8,4-4a7,7,0,0,1,3.94-2.19q2-.3,4.15,1.85a5.19,5.19,0,0,1,1.75,3.64c0,1.24-.66,2.55-2.06,3.94l-1.68,1.69,3.06,3.06,2.36-2.36A8.9,8.9,0,0,0,42.3,13a7.25,7.25,0,0,0,.2-4.52,10.92,10.92,0,0,0-3.13-5.08,12.35,12.35,0,0,0-4-2.7A7.77,7.77,0,0,0,30.48.39a11.24,11.24,0,0,0-5.26,3.24L21.38,7.47l-8,8.05Z"/></g></g></svg>