<svg xmlns="http://www.w3.org/2000/svg" width="311.077" height="160" viewBox="0 0 311.077 160">
  <g>
    <path d="M206.34,140.87h-.01V140C206.33,140.29,206.33,140.58,206.34,140.87Z" fill="#177bdf"/>
    <path d="M200,64V80a20.125,20.125,0,0,1-20.131,20A20,20,0,0,0,160,120v36a4,4,0,0,1-4,4H124a4,4,0,0,1-4-4V64a4,4,0,0,1,4-4h16a19.994,19.994,0,0,1,20,20,19.994,19.994,0,0,1,20-20h16A4,4,0,0,1,200,64Z" fill="#177bdf"/>
    <path d="M120,0a19.994,19.994,0,0,0-20,20A19.994,19.994,0,0,0,80,0H20A20,20,0,0,0,0,20V36a4,4,0,0,0,4,4H56a4,4,0,0,1,4,4v96a20,20,0,0,0,20,20H96a4,4,0,0,0,4-4V44a4,4,0,0,1,4-4h36a20,20,0,0,0,20-20V4a4,4,0,0,0-4-4Z" fill="#177bdf"/>
    <path d="M291.077,60h-16a4,4,0,0,0-4,4v74.28a29.979,29.979,0,0,1-20-28.28V86.956c0-14.887-8.954-26.956-20-26.956h-16a4,4,0,0,0-4,4v56.868h.022a39.926,39.926,0,0,0,64.678,30.583c3.669,5.226,9.16,8.549,15.3,8.549h16a4,4,0,0,0,4-4V80A20,20,0,0,0,291.077,60Z" fill="#177bdf"/>
  </g>
</svg>
